ModelForces
version=1
nRows=4
nColumns=103
inDegrees=no

This file contains the forces exerted on a model during a simulation.

A force is a generalized force, meaning that it can be either a force (N) or a torque (Nm).

Units are S.I. units (second, meters, Newtons, ...)
Angles are in degrees.

endheader
time	glut_med1_r	glut_med2_r	glut_med3_r	glut_min1_r	glut_min2_r	glut_min3_r	semimem_r	semiten_r	bifemlh_r	bifemsh_r	sar_r	add_long_r	add_brev_r	add_mag1_r	add_mag2_r	add_mag3_r	tfl_r	pect_r	grac_r	glut_max1_r	glut_max2_r	glut_max3_r	iliacus_r	psoas_r	quad_fem_r	gem_r	peri_r	rect_fem_r	vas_med_r	vas_int_r	vas_lat_r	med_gas_r	lat_gas_r	soleus_r	tib_post_r	flex_dig_r	flex_hal_r	tib_ant_r	per_brev_r	per_long_r	per_tert_r	ext_dig_r	ext_hal_r	glut_med1_l	glut_med2_l	glut_med3_l	glut_min1_l	glut_min2_l	glut_min3_l	semimem_l	semiten_l	bifemlh_l	bifemsh_l	sar_l	add_long_l	add_brev_l	add_mag1_l	add_mag2_l	add_mag3_l	tfl_l	pect_l	grac_l	glut_max1_l	glut_max2_l	glut_max3_l	iliacus_l	psoas_l	quad_fem_l	gem_l	peri_l	rect_fem_l	vas_med_l	vas_int_l	vas_lat_l	med_gas_l	lat_gas_l	soleus_l	tib_post_l	flex_dig_l	flex_hal_l	tib_ant_l	per_brev_l	per_long_l	per_tert_l	ext_dig_l	ext_hal_l	ercspn_r	ercspn_l	intobl_r	intobl_l	extobl_r	extobl_l	aACL_R	pACL_R	aPCL_R	pPCL_R	aMCL_R	aLCL_R	aPCL_L	pPCL_L	aMCL_L	aLCL_L
      0.06664917	      0.00000000	     13.56822239	      0.00000000	      0.00000000	      6.86303560	      1.97562878	      0.00000000	    288.93628946	    211.75601125	    405.40237568	    154.31343469	      5.90042510	     11.05566893	      0.00000000	      0.00000000	     13.97808342	      0.00000000	      0.00000000	    124.26590338	     15.03531713	     22.31970060	     14.35750599	     24.34482849	     16.72798167	      0.00000000	      3.59647171	      0.00000000	      0.00000000	      0.00000000	      0.00000000	      0.00000000	      0.00000000	      0.00000000	      0.00000000	     40.74415229	     12.71691611	     15.57116733	      0.65944023	      5.94181763	     19.16190189	      0.00000000	      0.00000000	      0.00000000	      0.00000000	     20.37694598	     20.43722052	      9.73124851	     10.86287688	      5.45436672	      0.00000000	      8.07147813	     11.00368834	      9.45095576	      3.32434752	     10.32829291	      8.12202666	      0.00000000	      0.00000000	     12.05788076	      5.12555264	      0.00000000	      2.70233615	     10.69178278	     19.11212202	     12.92808565	     33.52526605	     25.66585785	      0.00000000	      5.74047911	      0.00000000	     13.83452902	      0.00000000	      0.00000000	      0.00000000	      0.00000000	      0.00000000	      0.00000000	     26.94657709	     11.06195788	      9.74857509	     37.27496157	      7.48048952	     13.59864923	      4.45333463	      7.22536410	      1.61017991	     66.45902297	     66.45902297	     25.67896786	     25.67896786	     42.15122021	     42.15122021	      0.00000000	    520.88847501	    262.59251431	    564.50268073	      0.00000000	      0.00000000	      0.00000000	      0.00000000	      5.68581820	      0.00000000
      0.06666667	      0.00000000	     13.63852971	      0.00000000	      0.00000000	      6.92202462	      2.00796077	      0.00000000	    289.17025437	    212.42517900	    405.81381690	    154.49672620	      5.90089840	     10.54482509	      0.00000000	      0.00000000	     13.97847288	      0.00000000	      0.00000000	    124.36160474	     15.03081757	     22.32046160	     14.36486761	     24.33515448	     16.72509848	      0.00000000	      3.59274663	      0.00000000	      0.00000000	      0.00000000	      0.00000000	      0.00000000	      0.00000000	      0.00000000	      0.00000000	     40.83665905	     12.72811750	     15.56286399	      0.64440461	      5.94563888	     19.17286507	      0.00000000	      0.00000000	      0.00000000	      0.00000000	     20.37910172	     20.44611498	      9.72925875	     10.86204228	      5.46935156	      0.00000000	      8.07065608	     10.99984876	      9.44832292	      3.32396634	     10.32701999	      8.12038402	      0.00000000	      0.00000000	     12.05653436	      5.12427711	      0.00000000	      2.70198097	     10.69809379	     19.10802121	     12.92434833	     33.52253032	     25.66259718	      0.00000000	      5.73601076	      0.00000000	     13.82985656	      0.00000000	      0.00000000	      0.00000000	      0.00000000	      0.00000000	      0.00000000	     26.91161034	     11.05785352	      9.74844440	     37.26047217	      7.49700368	     13.61424086	      4.48740068	      7.23001943	      1.60995980	     66.44916260	     66.44916260	     25.67502954	     25.67502954	     42.14744244	     42.14744244	      0.00000000	    521.04550578	    262.53020700	    564.50913618	      0.00000000	      0.00000000	      0.00000000	      0.00000000	      5.70679753	      0.00000000
      0.06940539	      0.00000000	     21.67848960	      0.00000000	      0.00000000	     11.81067786	      6.08292728	      0.00000000	    320.66290935	    287.42552645	    440.96179125	    166.42929984	      6.17679730	      0.00000000	      0.00000000	      0.00000000	     14.70209667	      0.00000000	      0.00000000	    134.32148464	     14.55777827	     22.71076504	     16.59114602	     21.72399904	     15.43588295	      0.00000000	      3.30956159	      0.00000000	      0.00000000	      0.00000000	      0.00000000	      0.00000000	      0.00000000	      0.00000000	      0.00000000	     50.82958217	     12.87121959	     14.19249195	      0.00000000	      8.57660795	     23.28105479	      1.94833571	      0.00000000	      0.00000000	      0.00000000	     20.31174933	     20.95944472	      8.99614301	     10.74665342	      7.51870511	      0.00000000	      7.93401927	     10.38296511	      9.04450243	      3.27636881	     10.10171379	      7.87169928	      0.00000000	      0.00000000	     11.85493465	      4.92926481	      0.00000000	      2.64308443	     11.39716412	     18.49392057	     12.35469552	     33.04265361	     25.12844470	      0.00000000	      5.02613850	      0.00000000	     13.13367706	      0.00000000	      0.00000000	      0.00000000	      0.00000000	      0.00000000	      0.00000000	     21.50182982	     10.27772066	      9.57603854	     35.59132461	     10.49754826	     16.34809035	      4.96242185	      7.99238807	      1.57575499	     64.93542072	     64.93542072	     25.06893120	     25.06893120	     41.56803874	     41.56803874	      0.00000000	    518.03841173	    270.39762846	    456.26156146	      0.00000000	      0.00000000	      0.00000000	      0.00000000	      8.05197305	      0.00000000
      0.07310309	      0.00000000	     13.35856612	      0.00000000	      0.00000000	     10.77937856	      9.21633027	      0.00000000	    320.21746369	    241.57612157	    375.10459917	    131.25932146	      6.50635848	      0.00000000	      0.00000000	      0.00000000	     16.27358119	      0.00000000	      0.00000000	    123.68675982	     14.51176561	     24.09544013	      0.00000000	     16.92474013	     11.98712730	      0.00000000	      3.43756215	      0.00000000	      0.00000000	      0.00000000	      0.00000000	      0.00000000	      0.00000000	      0.00000000	      0.00000000	     47.47524152	      9.87196724	     12.35613913	      0.00000000	     15.48306754	     36.14268268	      4.64753333	      1.95687916	      0.00000000	      0.00000000	     19.74046464	     20.17470765	      0.00000000	     10.51624710	      9.62470533	      0.00000000	      7.70612870	      9.59441132	      8.59710954	      3.21839477	      9.78872051	      7.99292864	      0.00000000	      0.00000000	     11.61628126	      4.68864337	      0.00000000	      2.55715116	     11.58102495	     17.71525445	     11.64126101	     32.30997687	     24.35877534	      0.00000000	      4.13361613	      0.00000000	     12.31804804	      0.00000000	      0.00000000	      0.00000000	      0.00000000	      0.00000000	      0.00000000	     15.16891685	      9.02490016	      9.06050463	     34.34750922	     15.53754902	     20.56063735	     11.59205692	      9.03127242	      1.53876001	     62.98269915	     62.98269915	     24.28343815	     24.28343815	     40.82222230	     40.82222230	      0.00000000	    492.31139971	    369.03375656	    258.69186825	      0.00000000	      0.00000000	      0.00000000	      0.00000000	      9.00439707	      0.00000000
